# xmcd
# 
# Track frame offsets:
#     150
#     18750
#     31490
#     46656
#     58932
#     77170
#     95719
#     114681
# 
# Disc length: 1830
# 
# Revision: 0
# Processed by: cddbd v1.5.2PL0 Copyright (c) Steve Scherf et al.
# Submitted via: fre:ac v1.0.31
# 
DISCID=61072408
DTITLE=Willie Colón - El Malo
DYEAR=1967
DGENRE=Salsa
TTITLE0=Jazzy
TTITLE1=Willie Baby
TTITLE2=Borinquen
TTITLE3=Willie Whopper
TTITLE4=El Malo
TTITLE5=Skinny Papa
TTITLE6=Chonqui
TTITLE7=Quimbombo
EXTD=YEAR: 1967
EXTT0=
EXTT1=
EXTT2=
EXTT3=
EXTT4=
EXTT5=
EXTT6=
EXTT7=
PLAYORDER=
